<svg width="40" height="40" viewBox="0 0 40 40" fill="none" xmlns="http://www.w3.org/2000/svg">
<circle cx="20" cy="20" r="20" fill="#2D3D6F"/>
<path d="M27.875 29C28.1917 29 28.4583 28.8917 28.675 28.675C28.8917 28.4583 29 28.1917 29 27.875V24.5C29 24.2333 28.9167 24 28.75 23.8C28.5833 23.6 28.375 23.475 28.125 23.425L25.15 22.775C24.9333 22.725 24.7167 22.7375 24.5 22.8125C24.2833 22.8875 24.0917 23.0167 23.925 23.2L21.55 25.65C20.0833 24.85 18.7708 23.875 17.6125 22.725C16.4542 21.575 15.4083 20.225 14.475 18.675L16.975 16.15C17.1083 16.0167 17.1958 15.8542 17.2375 15.6625C17.2792 15.4708 17.2833 15.2583 17.25 15.025L16.575 11.875C16.525 11.6083 16.4125 11.3958 16.2375 11.2375C16.0625 11.0792 15.8583 11 15.625 11H12.125C11.8083 11 11.5417 11.1083 11.325 11.325C11.1083 11.5417 11 11.8083 11 12.125C11 14.1583 11.5 16.1792 12.5 18.1875C13.5 20.1958 14.8 22 16.4 23.6C18 25.2 19.8042 26.5 21.8125 27.5C23.8208 28.5 25.8417 29 27.875 29Z" fill="#61DBFF"/>
</svg>
