<svg width="40" height="40" viewBox="0 0 40 40" fill="none" xmlns="http://www.w3.org/2000/svg">
<circle cx="20" cy="20" r="20" fill="#2D3D6F"/>
<path d="M17.0815 25.4907C17.0815 24.1737 17.0768 22.8566 17.0861 21.5402C17.0861 21.3342 17.0263 21.2846 16.8201 21.2879C16.0818 21.3003 15.3435 21.2957 14.6059 21.2879C14.1224 21.2879 14.0033 21.166 14.002 20.6939C13.9993 19.7264 13.9993 18.759 14.002 17.7918C14.002 17.3302 14.139 17.1933 14.6099 17.1894C15.3561 17.1835 16.1031 17.1816 16.8493 17.1926C17.0369 17.1926 17.0821 17.1431 17.0835 16.9618C17.0928 16.0523 17.0455 15.1421 17.1207 14.2325C17.3136 11.9016 19.013 10.2292 21.3961 10.0454C22.439 9.9645 23.4846 10.0167 24.5288 10.0154C24.8673 10.0154 25.0216 10.1647 25.025 10.4978C25.0356 11.4645 25.0356 12.4317 25.025 13.3993C25.021 13.7324 24.8879 13.8557 24.5521 13.8687C23.8643 13.8889 23.1759 13.8948 22.4902 13.9072C21.7213 13.9209 21.4107 14.2247 21.4034 14.9843C21.3967 15.6428 21.4034 16.3013 21.3927 16.9592C21.3894 17.1398 21.4393 17.1946 21.6276 17.192C22.4736 17.1822 23.3196 17.1874 24.165 17.1881C24.2562 17.1867 24.3475 17.1901 24.4383 17.1985C24.7762 17.2376 24.8899 17.3537 24.8939 17.6869C24.9006 18.2228 24.8972 18.7594 24.8972 19.296C24.8972 19.7759 24.8972 20.2551 24.8972 20.735C24.8972 21.1705 24.7869 21.2827 24.3366 21.286C23.4407 21.2925 22.5454 21.2964 21.6495 21.286C21.4267 21.2827 21.3741 21.3466 21.3748 21.5591C21.3819 24.1202 21.3835 26.6808 21.3795 29.2411C21.3795 29.9204 21.299 30 20.6132 30C19.6515 30 18.6895 30 17.7273 30C17.2065 30 17.0821 29.8768 17.0815 29.3669C17.0815 28.0768 17.0815 26.7847 17.0815 25.4907Z" fill="white"/>
</svg>
