<svg width="40" height="40" viewBox="0 0 40 40" fill="none" xmlns="http://www.w3.org/2000/svg">
<circle cx="20" cy="20" r="20" fill="#2D3D6F"/>
<path d="M8 27.7662C9.58558 27.906 11.1343 27.7373 12.6314 27.2126C13.6619 26.8551 14.6258 26.3348 15.4848 25.6721C13.1433 25.4673 11.5761 24.3039 10.6992 22.1447C11.0807 22.2025 11.4668 22.2267 11.8527 22.217C12.2306 22.2091 12.6062 22.1563 12.9712 22.0598C10.151 21.3646 8.85362 18.9614 8.93106 17.0559C9.63597 17.4017 10.3612 17.6366 11.2136 17.6535C10.0883 16.851 9.37356 15.8425 9.0841 14.5641C8.79464 13.2857 9.00359 12.0941 9.63721 10.9591C9.72878 10.9759 9.76013 11.0392 9.79823 11.0868C11.948 13.5697 14.6424 15.1712 17.8816 15.8913C18.6085 16.0426 19.3453 16.1432 20.0866 16.1925C20.2298 16.204 20.2649 16.1787 20.2391 16.0263C20.0111 14.7045 20.2335 13.4671 20.9624 12.3194C22.0158 10.6614 24.1625 9.72886 26.1217 10.0698C27.2002 10.259 28.1319 10.712 28.9087 11.4675C28.9476 11.5119 28.999 11.544 29.0564 11.5596C29.1139 11.5753 29.1748 11.5738 29.2314 11.5555C30.2203 11.3428 31.1726 10.9908 32.0584 10.5102C32.1082 10.4831 32.1598 10.459 32.212 10.4367C32.2231 10.4319 32.2415 10.4434 32.2563 10.4476C32.0952 11.2946 31.2656 12.3441 30.1053 13.1393C31.123 13.0339 32.0399 12.7544 32.9851 12.3803C32.6287 12.9167 32.2168 13.4158 31.756 13.8695C31.3908 14.2368 30.9953 14.5739 30.5736 14.8774C30.4839 14.9413 30.4261 15.0063 30.431 15.1322C30.5257 17.5167 30.0008 19.7759 28.9561 21.9194C27.7355 24.4208 25.9545 26.4475 23.543 27.9186C21.813 28.9753 19.9269 29.6055 17.9074 29.864C16.5205 30.0479 15.1145 30.0453 13.7284 29.8561C11.6852 29.5814 9.7292 28.8678 8 27.7662Z" fill="white"/>
</svg>
