<svg width="50" height="54" viewBox="0 0 50 54" fill="none" xmlns="http://www.w3.org/2000/svg">
<path d="M1.10244 26.1448C1.10119 30.5911 2.20638 34.9327 4.30808 38.7594L0.901367 51.835L13.6307 48.3264C17.1378 50.3357 21.0863 51.396 25.1049 51.3975H25.1157C38.3491 51.3975 49.1216 40.0775 49.127 26.1644C49.1297 19.4223 46.6342 13.0829 42.1003 8.31347C37.5672 3.54408 31.5382 0.916146 25.1148 0.913137C11.8797 0.913137 1.10781 12.2321 1.10244 26.1448Z" fill="url(#paint0_linear_78_49432)"/>
<path d="M0.244011 26.1365C0.242401 30.7433 1.38748 35.2402 3.56396 39.2041L0.0351562 52.748L13.2211 49.1137C16.854 51.1963 20.9444 52.2939 25.1071 52.2955H25.1178C38.8262 52.2955 49.9854 40.5686 49.9912 26.1578C49.9936 19.1732 47.4086 12.6061 42.7127 7.66559C38.0162 2.72527 31.7712 0.00331241 25.1178 0.000115642C11.4072 0.000115642 0.249467 11.7251 0.243922 26.1365H0.244011ZM8.09634 38.5216L7.60412 37.6998C5.53453 34.2407 4.44195 30.2432 4.44374 26.1383C4.44813 14.1599 13.7219 4.41495 25.1257 4.41495C30.648 4.4173 35.8381 6.67995 39.7419 10.7862C43.6452 14.8922 45.7931 20.3508 45.7915 26.156C45.7867 38.1348 36.5125 47.8812 25.1179 47.8812H25.1098C21.3995 47.8791 17.7608 46.832 14.5873 44.8523L13.832 44.3818L6.00725 46.5382L8.09634 38.5216Z" fill="url(#paint1_linear_78_49432)"/>
<path fill-rule="evenodd" clip-rule="evenodd" d="M18.9018 15.2095C18.4362 14.1217 17.9461 14.0998 17.5032 14.0807C17.1409 14.0644 16.7262 14.0654 16.3121 14.0654C15.8978 14.0654 15.2244 14.229 14.655 14.8828C14.0852 15.5365 12.4795 17.1169 12.4795 20.3311C12.4795 23.5457 14.7068 26.6515 15.0172 27.0878C15.328 27.5235 19.3169 34.3301 25.6339 36.9489C30.884 39.1251 31.9523 38.6922 33.0918 38.5834C34.2314 38.4745 36.7689 37.0033 37.2868 35.4778C37.8048 33.9525 37.8048 32.6451 37.6494 32.3717C37.494 32.0995 37.0797 31.9361 36.4581 31.6094C35.8365 31.2827 32.781 29.702 32.2112 29.4842C31.6415 29.2665 31.2271 29.1576 30.8128 29.8116C30.3984 30.4651 29.2081 31.9361 28.8453 32.3718C28.4828 32.8084 28.1203 32.8628 27.4986 32.5361C26.8771 32.2084 24.8754 31.5192 22.5008 29.2937C20.6532 27.5622 19.406 25.4238 19.0432 24.7697C18.6807 24.1163 19.0044 23.7624 19.3162 23.4367C19.5952 23.144 19.9378 22.6742 20.2485 22.2926C20.5587 21.9112 20.6623 21.6389 20.8695 21.2033C21.0766 20.767 20.9731 20.3855 20.8177 20.0588C20.6623 19.7321 19.4544 16.5012 18.9018 15.2095Z" fill="white"/>
<defs>
<linearGradient id="paint0_linear_78_49432" x1="25.0141" y1="51.835" x2="25.0141" y2="0.913088" gradientUnits="userSpaceOnUse">
<stop stop-color="#20B038"/>
<stop offset="1" stop-color="#60D66A"/>
</linearGradient>
<linearGradient id="paint1_linear_78_49432" x1="25.0133" y1="52.7482" x2="25.0133" y2="0.000143959" gradientUnits="userSpaceOnUse">
<stop stop-color="#F9F9F9"/>
<stop offset="1" stop-color="white"/>
</linearGradient>
</defs>
</svg>
