<svg width="49" height="54" viewBox="0 0 49 54" fill="none" xmlns="http://www.w3.org/2000/svg">
<path d="M48.351 26.1109L47.1156 17.1499C47.0221 16.4491 46.7645 15.7803 46.3637 15.1979C45.963 14.6154 45.4305 14.1357 44.8095 13.7978C44.1996 13.4675 43.5197 13.2877 42.8263 13.2734C42.1329 13.2591 41.4461 13.4106 40.8232 13.7155L30.1697 18.8589C30.0709 18.7313 29.9638 18.6036 29.8568 18.4842C29.1444 17.7061 28.3098 17.0496 27.3859 16.5405C27.2294 16.454 27.0647 16.3716 26.8959 16.2893C28.0469 15.4818 28.9917 14.4146 29.6538 13.1742C30.3158 11.9337 30.6765 10.5548 30.7067 9.14907C30.7369 7.74333 30.4357 6.35023 29.8275 5.08251C29.2193 3.81479 28.3212 2.70806 27.2059 1.85189C26.0905 0.995731 24.7892 0.414181 23.4074 0.154309C22.0256 -0.105564 20.6019 -0.0364582 19.2518 0.356034C17.9016 0.748525 16.6628 1.45338 15.6356 2.41355C14.6084 3.37372 13.8217 4.56222 13.3392 5.88289C11.9739 5.11331 10.43 4.71703 8.86284 4.73395C6.53413 4.80026 4.31896 5.75467 2.67127 7.40159C1.02358 9.04852 0.0681382 11.2632 0.000748516 13.5919C-0.0147439 14.793 0.210397 15.985 0.662897 17.0977C1.1154 18.2103 1.7861 19.2212 2.63545 20.0705C3.4848 20.9199 4.49561 21.5906 5.60829 22.0431C6.72096 22.4956 7.91297 22.7207 9.11404 22.7052H9.22523C9.05833 23.7427 8.97844 24.7924 8.98638 25.8432V31.9544C8.98638 32.0038 8.98638 32.0532 8.98638 32.1027C8.98638 32.1521 8.98638 32.1932 8.98638 32.2344V50.5516C8.98638 51.5605 9.26229 52.2441 9.80999 52.6106C10.4818 52.9935 11.2491 53.1764 12.0214 53.1378H13.5245C14.1908 53.1712 14.858 53.0904 15.497 52.8989C15.6976 52.8241 15.8813 52.7102 16.0375 52.5639C16.1937 52.4175 16.3193 52.2417 16.4071 52.0465C16.6783 51.3944 16.8946 50.7208 17.0537 50.0327L20.5417 37.3573L24.0256 50.0327C24.1931 50.7188 24.4176 51.3896 24.6968 52.0382C24.8768 52.4307 25.2036 52.7368 25.6069 52.8907C26.246 53.0822 26.9131 53.1629 27.5795 53.1295H29.0867C29.8577 53.1681 30.6236 52.9852 31.294 52.6024C31.843 52.2482 32.1176 51.5619 32.1176 50.5434V32.2468C32.1176 32.1932 32.1176 32.1356 32.1176 32.0821C32.1176 32.0162 32.1176 31.942 32.1176 31.872V29.9407L43.3681 31.2955C43.5442 31.3188 43.7218 31.3298 43.8994 31.3285C44.4907 31.3274 45.0759 31.208 45.6204 30.9775C46.165 30.7469 46.6579 30.4098 47.0703 29.986C47.5683 29.4827 47.9431 28.871 48.1653 28.1987C48.3875 27.5264 48.4511 26.8118 48.351 26.1109V26.1109ZM31.924 23.0264C31.924 22.9811 31.924 22.9399 31.9034 22.8946L31.8787 22.7464L38.0558 19.7731L39.1142 26.5062L32.1135 25.662C32.1143 24.78 32.051 23.8992 31.924 23.0264V23.0264ZM27.2953 22.1616C27.6084 22.5243 27.8488 22.9437 28.0036 23.3971C28.1664 23.8405 28.2729 24.3026 28.3207 24.7725C28.3619 25.2117 28.3825 25.8212 28.3825 26.6009V30.1342V30.1548H12.7338L12.705 30.1301V27.0621C12.6797 25.8242 12.8365 24.5894 13.1703 23.3971C13.549 22.3055 14.3234 21.3959 15.3406 20.848C16.4771 20.1589 18.1889 19.8143 20.4758 19.8143C23.6989 19.8116 25.9734 20.594 27.2994 22.1616H27.2953ZM21.9418 4.69277C22.7723 4.732 23.5736 5.01166 24.2481 5.49777C24.9227 5.98387 25.4415 6.65547 25.7414 7.43092C26.0414 8.20637 26.1096 9.05226 25.9378 9.86576C25.766 10.6793 25.3615 11.4253 24.7736 12.0132C24.1857 12.6012 23.4396 13.0056 22.6261 13.1774C21.8126 13.3492 20.9667 13.281 20.1913 12.9811C19.4158 12.6811 18.7442 12.1623 18.2581 11.4878C17.772 10.8132 17.4924 10.012 17.4531 9.18147C17.4268 8.58428 17.5251 7.98815 17.7419 7.43106C17.9586 6.87398 18.2891 6.36817 18.7122 5.94587C19.1352 5.52357 19.6417 5.19404 20.1991 4.97829C20.7566 4.76254 21.3529 4.6653 21.9501 4.69277H21.9418ZM8.764 18.023C7.93348 17.9837 7.13225 17.7041 6.45771 17.218C5.78317 16.7319 5.26438 16.0603 4.96441 15.2848C4.66444 14.5094 4.59622 13.6635 4.76804 12.85C4.93986 12.0365 5.34431 11.2904 5.93223 10.7025C6.52015 10.1146 7.26621 9.71012 8.07971 9.53831C8.89321 9.36649 9.73911 9.43471 10.5146 9.73468C11.29 10.0346 11.9616 10.5534 12.4477 11.228C12.9338 11.9025 13.2135 12.7037 13.2527 13.5343C13.2784 14.1306 13.1798 14.7257 12.9633 15.2819C12.7468 15.8381 12.4171 16.3433 11.995 16.7653C11.573 17.1874 11.0679 17.5171 10.5116 17.7336C9.95544 17.9501 9.36031 18.0486 8.764 18.023V18.023ZM13.4339 48.229V34.8412H16.926L13.4339 48.229ZM27.6454 48.229L24.1491 34.8412H27.6454V48.229ZM44.0394 27.0086C44.0192 27.0335 43.9933 27.0532 43.9639 27.0661C43.9346 27.079 43.9026 27.0847 43.8706 27.0827L43.4876 27.0333L42.0462 17.85L42.6846 17.5412C42.7047 17.53 42.7274 17.5241 42.7504 17.5241C42.7735 17.5241 42.7962 17.53 42.8163 17.5412C42.8481 17.5617 42.8745 17.5897 42.8931 17.6227C42.9118 17.6557 42.9222 17.6927 42.9234 17.7306L44.1588 26.6874C44.1631 26.7464 44.1547 26.8056 44.1341 26.861C44.1135 26.9164 44.0812 26.9668 44.0394 27.0086Z" fill="#2D3D6F"/>
</svg>
