<svg width="214" height="58" viewBox="0 0 214 58" fill="none" xmlns="http://www.w3.org/2000/svg">
<path d="M48.351 26.1109L47.1156 17.1499C47.0221 16.4491 46.7645 15.7803 46.3637 15.1979C45.963 14.6154 45.4305 14.1357 44.8095 13.7978C44.1996 13.4675 43.5197 13.2877 42.8263 13.2734C42.1329 13.2591 41.4461 13.4106 40.8232 13.7155L30.1697 18.8589C30.0709 18.7313 29.9638 18.6036 29.8568 18.4842C29.1444 17.7061 28.3098 17.0496 27.3859 16.5405C27.2294 16.454 27.0647 16.3716 26.8959 16.2893C28.0469 15.4818 28.9917 14.4146 29.6538 13.1742C30.3158 11.9337 30.6765 10.5548 30.7067 9.14907C30.7369 7.74333 30.4357 6.35023 29.8275 5.08251C29.2193 3.81479 28.3212 2.70806 27.2059 1.85189C26.0905 0.995731 24.7892 0.414181 23.4074 0.154309C22.0256 -0.105564 20.6019 -0.0364582 19.2518 0.356034C17.9016 0.748525 16.6628 1.45338 15.6356 2.41355C14.6084 3.37372 13.8217 4.56222 13.3392 5.88289C11.9739 5.11331 10.43 4.71703 8.86284 4.73395C6.53413 4.80026 4.31896 5.75467 2.67127 7.40159C1.02358 9.04852 0.0681382 11.2632 0.000748516 13.5919C-0.0147439 14.793 0.210397 15.985 0.662897 17.0977C1.1154 18.2103 1.7861 19.2212 2.63545 20.0705C3.4848 20.9199 4.49561 21.5906 5.60829 22.0431C6.72096 22.4956 7.91297 22.7207 9.11404 22.7052H9.22523C9.05833 23.7427 8.97844 24.7924 8.98638 25.8432V31.9544C8.98638 32.0038 8.98638 32.0532 8.98638 32.1027C8.98638 32.1521 8.98638 32.1932 8.98638 32.2344V50.5516C8.98638 51.5605 9.26229 52.2441 9.80999 52.6106C10.4818 52.9935 11.2491 53.1764 12.0214 53.1378H13.5245C14.1908 53.1712 14.858 53.0904 15.497 52.8989C15.6976 52.8241 15.8813 52.7102 16.0375 52.5639C16.1937 52.4175 16.3193 52.2417 16.4071 52.0465C16.6783 51.3944 16.8946 50.7208 17.0537 50.0327L20.5417 37.3573L24.0256 50.0327C24.1931 50.7188 24.4176 51.3896 24.6968 52.0382C24.8768 52.4307 25.2036 52.7368 25.6069 52.8907C26.246 53.0822 26.9131 53.1629 27.5795 53.1295H29.0867C29.8577 53.1681 30.6236 52.9852 31.294 52.6024C31.843 52.2482 32.1176 51.5619 32.1176 50.5434V32.2468C32.1176 32.1932 32.1176 32.1356 32.1176 32.0821C32.1176 32.0162 32.1176 31.942 32.1176 31.872V29.9407L43.3681 31.2955C43.5442 31.3188 43.7218 31.3298 43.8994 31.3285C44.4907 31.3274 45.0759 31.208 45.6204 30.9775C46.165 30.7469 46.6579 30.4098 47.0703 29.986C47.5683 29.4827 47.9431 28.871 48.1653 28.1987C48.3875 27.5264 48.4511 26.8118 48.351 26.1109V26.1109ZM31.924 23.0264C31.924 22.9811 31.924 22.9399 31.9034 22.8946L31.8787 22.7464L38.0558 19.7731L39.1142 26.5062L32.1135 25.662C32.1143 24.78 32.051 23.8992 31.924 23.0264V23.0264ZM27.2953 22.1616C27.6084 22.5243 27.8488 22.9437 28.0036 23.3971C28.1664 23.8405 28.2729 24.3026 28.3207 24.7725C28.3619 25.2117 28.3825 25.8212 28.3825 26.6009V30.1342V30.1548H12.7338L12.705 30.1301V27.0621C12.6797 25.8242 12.8365 24.5894 13.1703 23.3971C13.549 22.3055 14.3234 21.3959 15.3406 20.848C16.4771 20.1589 18.1889 19.8143 20.4758 19.8143C23.6989 19.8116 25.9734 20.594 27.2994 22.1616H27.2953ZM21.9418 4.69277C22.7723 4.732 23.5736 5.01166 24.2481 5.49777C24.9227 5.98387 25.4415 6.65547 25.7414 7.43092C26.0414 8.20637 26.1096 9.05226 25.9378 9.86576C25.766 10.6793 25.3615 11.4253 24.7736 12.0132C24.1857 12.6012 23.4396 13.0056 22.6261 13.1774C21.8126 13.3492 20.9667 13.281 20.1913 12.9811C19.4158 12.6811 18.7442 12.1623 18.2581 11.4878C17.772 10.8132 17.4924 10.012 17.4531 9.18147C17.4268 8.58428 17.5251 7.98815 17.7419 7.43106C17.9586 6.87398 18.2891 6.36817 18.7122 5.94587C19.1352 5.52357 19.6417 5.19404 20.1991 4.97829C20.7566 4.76254 21.3529 4.6653 21.9501 4.69277H21.9418ZM8.764 18.023C7.93348 17.9837 7.13225 17.7041 6.45771 17.218C5.78317 16.7319 5.26438 16.0603 4.96441 15.2848C4.66444 14.5094 4.59622 13.6635 4.76804 12.85C4.93986 12.0365 5.34431 11.2904 5.93223 10.7025C6.52015 10.1146 7.26621 9.71012 8.07971 9.53831C8.89321 9.36649 9.73911 9.43471 10.5146 9.73468C11.29 10.0346 11.9616 10.5534 12.4477 11.228C12.9338 11.9025 13.2135 12.7037 13.2527 13.5343C13.2784 14.1306 13.1798 14.7257 12.9633 15.2819C12.7468 15.8381 12.4171 16.3433 11.995 16.7653C11.573 17.1874 11.0679 17.5171 10.5116 17.7336C9.95544 17.9501 9.36031 18.0486 8.764 18.023V18.023ZM13.4339 48.229V34.8412H16.926L13.4339 48.229ZM27.6454 48.229L24.1491 34.8412H27.6454V48.229ZM44.0394 27.0086C44.0192 27.0335 43.9933 27.0532 43.9639 27.0661C43.9346 27.079 43.9026 27.0847 43.8706 27.0827L43.4876 27.0333L42.0462 17.85L42.6846 17.5412C42.7047 17.53 42.7274 17.5241 42.7504 17.5241C42.7735 17.5241 42.7962 17.53 42.8163 17.5412C42.8481 17.5617 42.8745 17.5897 42.8931 17.6227C42.9118 17.6557 42.9222 17.6927 42.9234 17.7306L44.1588 26.6874C44.1631 26.7464 44.1547 26.8056 44.1341 26.861C44.1135 26.9164 44.0812 26.9668 44.0394 27.0086Z" fill="#2D3D6F"/>
<path d="M66.0383 16.5938V19.3734H58.0451V22.5691H65.3753V25.1511H58.0451V28.8244H66.1866V31.6082H54.7754V16.5938H66.0383Z" fill="#2D3D6F"/>
<path d="M81.0862 16.5938L76.2557 23.7551L81.5228 31.6082H77.5776L75.3415 28.0502C74.9639 27.4402 74.6295 26.8045 74.3408 26.1477C74.0092 26.8 73.6421 27.4338 73.2413 28.0461L70.9723 31.5959H67.2207L72.5289 23.7427L67.616 16.5938H71.4582L73.2825 19.5464C73.7127 20.2239 74.0939 20.9312 74.4232 21.6631C74.7602 20.9763 75.1341 20.3082 75.5433 19.6617L77.4582 16.5938H81.0862Z" fill="#2D3D6F"/>
<path d="M96.5781 25.81C96.4942 27.2722 95.9444 28.6692 95.0091 29.7963C93.7929 31.2458 92.0674 31.9706 89.8327 31.9706C87.4634 31.9706 85.6158 31.1319 84.2897 29.4545C83.1194 27.9157 82.5145 26.0209 82.5766 24.0886C82.512 22.0288 83.2317 20.0212 84.5904 18.4716C85.9246 16.9808 87.7091 16.2355 89.9438 16.2355C90.8793 16.1989 91.8116 16.3638 92.6777 16.719C93.5439 17.0743 94.3235 17.6116 94.9638 18.2945C95.8307 19.2011 96.3573 20.3796 96.4545 21.6301H93.2136C93.1051 21.0176 92.8285 20.4473 92.4147 19.9829C92.0901 19.6409 91.6952 19.3733 91.2573 19.1984C90.8194 19.0235 90.3489 18.9456 89.878 18.9699C89.23 18.9392 88.5865 19.0917 88.0213 19.41C87.4561 19.7283 86.992 20.1995 86.6823 20.7695C86.1199 21.7934 85.844 22.9499 85.8834 24.1175C85.8377 25.2978 86.123 26.4675 86.707 27.4943C87.0199 28.0425 87.4771 28.4943 88.0289 28.8007C88.5808 29.1071 89.2061 29.2563 89.8368 29.2321C90.3646 29.2656 90.8921 29.1623 91.3682 28.9321C91.8444 28.702 92.2531 28.3528 92.5547 27.9184C92.9657 27.2858 93.2146 26.5616 93.2795 25.81H96.5781Z" fill="#2D3D6F"/>
<path d="M106.618 16.5605L112.318 31.608H108.879L107.685 28.2394H102.101L100.865 31.608H97.4844L103.208 16.5605H106.618ZM106.886 25.8427L105.914 23.1371C105.523 22.0684 105.189 20.9797 104.913 19.8756C104.666 20.761 104.312 21.8481 103.859 23.1371L102.887 25.8427H106.886Z" fill="#2D3D6F"/>
<path d="M114.229 16.5933H120.278C121.191 16.5674 122.104 16.6559 122.996 16.8568C123.959 17.1054 124.801 17.6895 125.372 18.504C125.961 19.3475 126.265 20.358 126.237 21.3867C126.269 22.0842 126.14 22.7798 125.86 23.4192C125.579 24.0585 125.154 24.6243 124.618 25.0724C124.04 25.5547 123.346 25.8783 122.605 26.0113C122.031 26.1161 121.45 26.1658 120.867 26.1595H117.498V31.5748H114.229V16.5933ZM117.498 19.373V23.6146H120.43C121.087 23.6694 121.743 23.5043 122.296 23.1451C122.537 22.9413 122.727 22.684 122.85 22.3937C122.974 22.1034 123.028 21.7881 123.008 21.4732C123.03 21.1432 122.965 20.8133 122.821 20.5159C122.677 20.2184 122.457 19.9636 122.185 19.7765C121.59 19.4595 120.917 19.3168 120.245 19.3647L117.498 19.373Z" fill="#2D3D6F"/>
<path d="M139.929 16.5938V19.3734H131.936V22.5691H139.27V25.1511H131.936V28.8244H140.081V31.6082H128.666V16.5938H139.929Z" fill="#2D3D6F"/>
<path d="M156.628 16.5938V18.3233H148.21V23.0962H156.076V24.694H148.21V29.8869H156.735V31.6124H146.229V16.5938H156.628Z" fill="#2D3D6F"/>
<path d="M172.445 23.6765V31.5955H171.185L170.876 30.4548C170.798 30.1501 170.732 29.903 170.675 29.7177C170.098 30.437 169.361 31.012 168.524 31.3973C167.686 31.7826 166.77 31.9675 165.848 31.9373C163.441 31.9373 161.579 31.0698 160.264 29.3347C159.179 27.8625 158.619 26.0687 158.675 24.2407C158.675 21.8851 159.361 19.9455 160.734 18.4218C162.035 16.9695 163.787 16.242 165.988 16.2393C168.028 16.2393 169.633 16.8391 170.802 18.0389C171.647 18.887 172.171 20.0019 172.285 21.1933H170.333C170.231 20.513 169.935 19.8766 169.48 19.3608C168.657 18.3999 167.489 17.9208 165.976 17.9235C165.212 17.8893 164.45 18.0377 163.755 18.3564C163.06 18.6751 162.45 19.1549 161.977 19.7561C161.104 20.8542 160.668 22.3216 160.668 24.1583C160.607 25.6321 161.026 27.0859 161.862 28.3011C162.334 28.9415 162.957 29.4551 163.675 29.7957C164.394 30.1364 165.186 30.2935 165.98 30.2531C166.599 30.2755 167.217 30.173 167.796 29.9515C168.374 29.73 168.903 29.3942 169.349 28.9641C170.213 28.1158 170.661 26.8803 170.691 25.2578H165.869V23.6765H172.445Z" fill="#2D3D6F"/>
<path d="M187.279 16.5938L181.493 25.46V31.6082H179.508V25.46L173.66 16.5938H176.057L179.594 22.1984C180.014 22.8573 180.341 23.4064 180.574 23.8457C180.827 23.3762 181.137 22.8505 181.505 22.2685L185.022 16.6102L187.279 16.5938Z" fill="#2D3D6F"/>
<path d="M188.823 16.5941H194.79C195.583 16.5697 196.375 16.6514 197.146 16.837C198.026 17.09 198.789 17.6456 199.3 18.406C199.792 19.1462 200.041 20.0214 200.012 20.9098C200.012 22.6229 199.43 23.8734 198.266 24.6614C197.67 25.0609 196.986 25.3096 196.273 25.3861C195.809 25.4279 195.343 25.4457 194.877 25.4397H190.804V31.6168H188.823V16.5941ZM190.804 18.3195V23.8377H194.63C195.717 23.8377 196.512 23.6565 197.006 23.2942C197.349 23.0278 197.62 22.681 197.797 22.2844C197.974 21.8879 198.05 21.454 198.019 21.021C198.051 20.5699 197.958 20.1186 197.749 19.7173C197.541 19.316 197.225 18.9804 196.837 18.7478C196.442 18.5243 196.001 18.3921 195.548 18.3607C195.247 18.3319 194.848 18.3195 194.341 18.3195H190.804Z" fill="#2D3D6F"/>
<path d="M213.12 16.5938V18.3233H208.067V31.6124H206.086V18.3233H201.046V16.5938H213.12Z" fill="#2D3D6F"/>
<path d="M66.7833 46.4382C66.6762 44.4697 66.5486 42.1059 66.5692 40.3475H66.5156C66.0338 41.9948 65.4491 43.7614 64.7325 45.701L62.237 52.5411H60.8492L58.5636 45.8287C57.8924 43.8397 57.3282 42.0195 56.9164 40.3434H56.8752C56.834 42.1018 56.7311 44.4615 56.6034 46.5782L56.2205 52.6317H54.4785L55.4627 38.5273H57.7936L60.2067 45.351C60.7915 47.0888 61.2774 48.6454 61.6316 50.0991H61.6975C62.0516 48.6743 62.5541 47.13 63.1841 45.351L65.7044 38.5273H68.0311L68.9124 52.6317H67.1292L66.7833 46.4382Z" fill="#2D3D6F"/>
<path d="M77.3918 52.6317L77.2476 51.3551H77.1858C76.8242 51.8338 76.3542 52.22 75.8145 52.4819C75.2748 52.7439 74.6806 52.8743 74.0808 52.8623C72.0218 52.8623 70.9717 51.421 70.9717 49.955C70.9717 47.5088 73.1584 46.1705 77.0788 46.1869V45.9769C77.0788 45.1533 76.8482 43.6379 74.7727 43.6379C73.8387 43.6403 72.9237 43.9011 72.1289 44.3915L71.717 43.156C72.7247 42.5545 73.8792 42.2438 75.0527 42.2583C78.1577 42.2583 78.9113 44.375 78.9113 46.4011V50.1897C78.8973 51.0016 78.9538 51.8131 79.0802 52.6152L77.3918 52.6317ZM77.12 47.4635C75.1062 47.4224 72.8207 47.7765 72.8207 49.7449C72.8051 49.9783 72.8393 50.2123 72.9212 50.4314C73.003 50.6505 73.1306 50.8496 73.2954 51.0156C73.4602 51.1816 73.6584 51.3105 73.8769 51.3939C74.0954 51.4773 74.3292 51.5132 74.5626 51.4992C75.1016 51.5198 75.6329 51.3663 76.0779 51.0615C76.5229 50.7567 76.8579 50.3167 77.0335 49.8067C77.1008 49.619 77.137 49.4214 77.1405 49.222L77.12 47.4635Z" fill="#2D3D6F"/>
<path d="M81.8675 45.6636C81.8675 44.4694 81.8469 43.4439 81.7852 42.505H83.3994L83.4612 44.4899H83.5436C83.7181 43.8708 84.0843 43.3228 84.5896 42.9248C85.0949 42.5267 85.7134 42.299 86.3562 42.2744C86.5324 42.2744 86.7079 42.2952 86.8792 42.3362V44.074C86.6721 44.03 86.4608 44.0093 86.2491 44.0122C84.9478 44.0122 84.0254 44.9965 83.7783 46.376C83.7275 46.6588 83.6999 46.9453 83.6959 47.2326V52.6314H81.8675V45.6636Z" fill="#2D3D6F"/>
<path d="M90.6313 47.1501H90.6725C90.9237 46.7959 91.2819 46.3553 91.5743 45.997L94.5517 42.5049H96.7755L92.8715 46.6682L97.3396 52.6312H95.0912L91.5908 47.776L90.6478 48.822V52.6312H88.8193V37.7773H90.6478L90.6313 47.1501Z" fill="#2D3D6F"/>
<path d="M99.658 47.9038C99.6992 50.3747 101.305 51.4206 103.142 51.4206C104.105 51.4497 105.063 51.2699 105.95 50.8935L106.268 52.2113C105.199 52.6563 104.048 52.871 102.891 52.8414C99.7651 52.8414 97.8955 50.7824 97.8955 47.735C97.8955 44.6876 99.6992 42.2744 102.656 42.2744C105.971 42.2744 106.856 45.1818 106.856 47.0431C106.852 47.3311 106.83 47.6186 106.791 47.9038H99.658ZM105.069 46.5819C105.094 45.4124 104.587 43.5922 102.512 43.5922C100.642 43.5922 99.8269 45.3094 99.6786 46.5819H105.069Z" fill="#2D3D6F"/>
<path d="M111.353 39.5938V42.5052H113.997V43.9054H111.353V49.3659C111.353 50.6219 111.711 51.3344 112.737 51.3344C113.098 51.3406 113.458 51.2977 113.807 51.2067L113.89 52.5904C113.361 52.7761 112.802 52.8613 112.243 52.8416C111.874 52.8637 111.505 52.806 111.161 52.6724C110.817 52.5388 110.506 52.3324 110.249 52.0674C109.726 51.5238 109.537 50.6219 109.537 49.4277V43.9054H107.964V42.5052H109.537V40.0797L111.353 39.5938Z" fill="#2D3D6F"/>
<path d="M118.119 39.6596C118.101 39.9508 117.973 40.2244 117.761 40.4244C117.549 40.6244 117.268 40.7358 116.976 40.7358C116.684 40.7358 116.404 40.6244 116.191 40.4244C115.979 40.2244 115.851 39.9508 115.833 39.6596C115.829 39.5071 115.857 39.3554 115.913 39.2137C115.97 39.072 116.054 38.9433 116.162 38.8354C116.27 38.7276 116.399 38.6428 116.541 38.5862C116.682 38.5297 116.834 38.5026 116.986 38.5065C117.138 38.5012 117.29 38.5275 117.431 38.5838C117.572 38.6402 117.7 38.7253 117.807 38.8337C117.913 38.9422 117.996 39.0716 118.05 39.2138C118.103 39.356 118.127 39.5078 118.119 39.6596V39.6596ZM116.06 52.6315V42.5052H117.909V52.6315H116.06Z" fill="#2D3D6F"/>
<path d="M120.964 45.2439C120.964 44.1979 120.944 43.3454 120.882 42.5053H122.529L122.636 44.1773H122.677C123.011 43.585 123.5 43.095 124.091 42.7597C124.682 42.4245 125.354 42.2568 126.034 42.2747C127.442 42.2747 129.62 43.0983 129.62 46.5822V52.6317H127.775V46.7964C127.775 45.1492 127.166 43.8025 125.428 43.8025C124.869 43.8116 124.328 43.9991 123.884 44.3377C123.439 44.6763 123.115 45.1482 122.957 45.6845C122.866 45.9621 122.823 46.2531 122.83 46.5452V52.6317H120.985L120.964 45.2439Z" fill="#2D3D6F"/>
<path d="M141.341 42.5052C141.295 43.2382 141.254 44.0536 141.254 45.289V51.1655C141.254 53.4922 140.793 54.913 139.809 55.7901C138.824 56.6673 137.395 57.0049 136.102 57.0049C134.924 57.0362 133.758 56.7518 132.726 56.1813L133.187 54.7771C134.087 55.3108 135.117 55.5871 136.164 55.576C138.054 55.576 139.438 54.5917 139.438 52.0385V50.9061H139.405C139.064 51.4494 138.586 51.8926 138.018 52.1906C137.45 52.4887 136.813 52.6309 136.172 52.6027C133.656 52.6027 131.853 50.4654 131.853 47.661C131.853 44.2266 134.097 42.2828 136.428 42.2828C137.068 42.2464 137.705 42.3922 138.266 42.7035C138.826 43.0147 139.287 43.4786 139.595 44.0412H139.636L139.722 42.5134L141.341 42.5052ZM139.43 46.5039C139.443 46.143 139.383 45.7832 139.254 45.446C139.126 45.1087 138.93 44.801 138.679 44.5411C138.429 44.2812 138.128 44.0745 137.796 43.9335C137.463 43.7924 137.106 43.7198 136.745 43.72C134.982 43.72 133.726 45.2025 133.726 47.5498C133.726 49.5348 134.731 51.1861 136.724 51.1861C137.294 51.1841 137.849 51.0012 138.309 50.6637C138.768 50.3263 139.109 49.8517 139.282 49.3083C139.383 48.9888 139.433 48.6551 139.43 48.3199V46.5039Z" fill="#2D3D6F"/>
<path d="M151.096 48.1966L149.626 52.6317H147.74L152.542 38.5273H154.745L159.584 52.6317H157.636L156.125 48.1966H151.096ZM155.729 46.7758L154.346 42.7154C154.033 41.7971 153.819 40.9735 153.613 40.1499H153.567C153.361 40.9735 153.131 41.8424 152.855 42.7031L151.475 46.7841L155.729 46.7758Z" fill="#2D3D6F"/>
<path d="M170.065 42.5044C170.019 43.2374 169.978 44.0528 169.978 45.2882V51.1647C169.978 53.4914 169.521 54.9121 168.533 55.7893C167.545 56.6664 166.12 57.0041 164.827 57.0041C163.649 57.036 162.484 56.7516 161.454 56.1805L161.911 54.7762C162.812 55.31 163.841 55.5863 164.888 55.5751C166.779 55.5751 168.183 54.5909 168.183 52.0377V50.9052H168.138C167.797 51.4485 167.318 51.8918 166.75 52.1898C166.182 52.4878 165.546 52.63 164.905 52.6019C162.389 52.6019 160.585 50.4646 160.585 47.6602C160.585 44.2257 162.829 42.282 165.16 42.282C165.8 42.245 166.438 42.3907 166.999 42.702C167.559 43.0133 168.02 43.4775 168.327 44.0404H168.368L168.455 42.5126L170.065 42.5044ZM168.154 46.503C168.167 46.1422 168.108 45.7824 167.979 45.4451C167.85 45.1079 167.654 44.8001 167.403 44.5402C167.153 44.2803 166.852 44.0737 166.52 43.9326C166.187 43.7915 165.83 43.719 165.469 43.7192C163.706 43.7192 162.45 45.2017 162.45 47.549C162.45 49.5339 163.455 51.1853 165.448 51.1853C166.019 51.1832 166.573 51.0003 167.033 50.6629C167.492 50.3254 167.833 49.8508 168.006 49.3074C168.107 48.9879 168.157 48.6543 168.154 48.3191V46.503Z" fill="#2D3D6F"/>
<path d="M174.059 47.9038C174.101 50.3747 175.707 51.4206 177.539 51.4206C178.504 51.4497 179.463 51.2699 180.352 50.8935L180.665 52.2113C179.596 52.6563 178.445 52.871 177.288 52.8414C174.162 52.8414 172.297 50.7824 172.297 47.735C172.297 44.6876 174.101 42.2744 177.057 42.2744C180.372 42.2744 181.254 45.1818 181.254 47.0431C181.25 47.3311 181.228 47.6186 181.188 47.9038H174.059ZM179.471 46.5819C179.471 45.4124 178.989 43.5922 176.909 43.5922C175.044 43.5922 174.224 45.3094 174.08 46.5819H179.471Z" fill="#2D3D6F"/>
<path d="M183.523 45.2439C183.523 44.1979 183.502 43.3454 183.44 42.5053H185.088L185.195 44.1773H185.236C185.57 43.585 186.058 43.095 186.65 42.7597C187.241 42.4245 187.913 42.2568 188.592 42.2747C190.001 42.2747 192.179 43.0983 192.179 46.5822V52.6317H190.334V46.7964C190.334 45.1492 189.725 43.8025 187.987 43.8025C187.428 43.8122 186.887 44 186.443 44.3385C185.998 44.677 185.674 45.1486 185.516 45.6845C185.428 45.9628 185.387 46.2535 185.392 46.5452V52.6317H183.543L183.523 45.2439Z" fill="#2D3D6F"/>
<path d="M202.387 52.2526C201.473 52.6623 200.478 52.8634 199.476 52.8415C196.412 52.8415 194.419 50.7825 194.419 47.6733C194.419 44.5642 196.56 42.3198 199.875 42.3198C200.755 42.3087 201.627 42.4856 202.433 42.8387L202.021 44.2636C201.362 43.9204 200.626 43.7543 199.884 43.7817C197.553 43.7817 196.297 45.499 196.297 47.6115C196.297 49.9547 197.804 51.4002 199.818 51.4002C200.601 51.4032 201.375 51.2301 202.083 50.8936L202.387 52.2526Z" fill="#2D3D6F"/>
<path d="M205.587 42.505L207.811 48.4885C208.041 49.1598 208.293 49.9546 208.461 50.5476H208.503C208.692 49.9422 208.914 49.168 209.153 48.435L211.167 42.4926H213.119L210.347 49.7075C209.026 53.1831 208.124 54.9621 206.868 56.0493C206.228 56.6374 205.446 57.049 204.599 57.2435L204.142 55.6951C204.732 55.5023 205.28 55.1975 205.756 54.7974C206.425 54.2409 206.955 53.5359 207.304 52.7384C207.38 52.6019 207.431 52.4525 207.452 52.2977C207.436 52.1312 207.393 51.9685 207.325 51.8159L203.573 42.4844L205.587 42.505Z" fill="#2D3D6F"/>
</svg>
