<svg width="214" height="58" viewBox="0 0 214 58" fill="none" xmlns="http://www.w3.org/2000/svg">
<path d="M48.351 26.354L47.1156 17.3931C47.0221 16.6923 46.7645 16.0235 46.3637 15.441C45.963 14.8586 45.4305 14.3789 44.8095 14.041C44.1996 13.7107 43.5197 13.5309 42.8263 13.5166C42.1329 13.5022 41.4461 13.6538 40.8232 13.9586L30.1697 19.1021C30.0709 18.9744 29.9638 18.8468 29.8568 18.7274C29.1444 17.9493 28.3098 17.2927 27.3859 16.7836C27.2294 16.6971 27.0647 16.6148 26.8959 16.5324C28.0469 15.7249 28.9917 14.6578 29.6538 13.4173C30.3158 12.1769 30.6765 10.798 30.7067 9.39224C30.7369 7.98649 30.4357 6.59339 29.8275 5.32567C29.2193 4.05795 28.3212 2.95122 27.2059 2.09506C26.0905 1.23889 24.7892 0.657345 23.4074 0.397473C22.0256 0.1376 20.6019 0.206706 19.2518 0.599198C17.9016 0.991689 16.6628 1.69654 15.6356 2.65671C14.6084 3.61688 13.8217 4.80539 13.3392 6.12606C11.9739 5.35647 10.43 4.96019 8.86284 4.97712C6.53413 5.04342 4.31896 5.99783 2.67127 7.64476C1.02358 9.29168 0.0681382 11.5064 0.000748516 13.8351C-0.0147439 15.0361 0.210397 16.2282 0.662897 17.3408C1.1154 18.4535 1.7861 19.4643 2.63545 20.3137C3.4848 21.163 4.49561 21.8337 5.60829 22.2862C6.72096 22.7387 7.91297 22.9639 9.11404 22.9484H9.22523C9.05833 23.9859 8.97844 25.0355 8.98638 26.0863V32.1976C8.98638 32.247 8.98638 32.2964 8.98638 32.3458C8.98638 32.3952 8.98638 32.4364 8.98638 32.4776V50.7948C8.98638 51.8037 9.26229 52.4873 9.80999 52.8538C10.4818 53.2367 11.2491 53.4196 12.0214 53.3809H13.5245C14.1908 53.4143 14.858 53.3335 15.497 53.1421C15.6976 53.0672 15.8813 52.9533 16.0375 52.807C16.1937 52.6607 16.3193 52.4848 16.4071 52.2896C16.6783 51.6376 16.8946 50.964 17.0537 50.2759L20.5417 37.6005L24.0256 50.2759C24.1931 50.9619 24.4176 51.6327 24.6968 52.2814C24.8768 52.6738 25.2036 52.9799 25.6069 53.1338C26.246 53.3253 26.9131 53.4061 27.5795 53.3727H29.0867C29.8577 53.4113 30.6236 53.2283 31.294 52.8456C31.843 52.4914 32.1176 51.8051 32.1176 50.7865V32.4899C32.1176 32.4364 32.1176 32.3788 32.1176 32.3252C32.1176 32.2593 32.1176 32.1852 32.1176 32.1152V30.1838L43.3681 31.5387C43.5442 31.5619 43.7218 31.573 43.8994 31.5716C44.4907 31.5705 45.0759 31.4512 45.6204 31.2207C46.165 30.9901 46.6579 30.653 47.0703 30.2291C47.5683 29.7259 47.9431 29.1141 48.1653 28.4418C48.3875 27.7696 48.4511 27.055 48.351 26.354ZM31.924 23.2696C31.924 23.2243 31.924 23.1831 31.9034 23.1378L31.8787 22.9896L38.0558 20.0163L39.1142 26.7494L32.1135 25.9052C32.1143 25.0232 32.051 24.1424 31.924 23.2696ZM27.2953 22.4048C27.6084 22.7674 27.8488 23.1868 28.0036 23.6402C28.1664 24.0836 28.2729 24.5457 28.3207 25.0156C28.3619 25.4549 28.3825 26.0644 28.3825 26.8441V30.3774V30.398H12.7338L12.705 30.3733V27.3053C12.6797 26.0674 12.8365 24.8325 13.1703 23.6402C13.549 22.5487 14.3234 21.639 15.3406 21.0911C16.4771 20.402 18.1889 20.0575 20.4758 20.0575C23.6989 20.0547 25.9734 20.8372 27.2994 22.4048H27.2953ZM21.9418 4.93593C22.7723 4.97516 23.5736 5.25483 24.2481 5.74093C24.9227 6.22703 25.4415 6.89863 25.7414 7.67408C26.0414 8.44953 26.1096 9.29543 25.9378 10.1089C25.766 10.9224 25.3615 11.6685 24.7736 12.2564C24.1857 12.8443 23.4396 13.2488 22.6261 13.4206C21.8126 13.5924 20.9667 13.5242 20.1913 13.2242C19.4158 12.9243 18.7442 12.4055 18.2581 11.7309C17.772 11.0564 17.4924 10.2552 17.4531 9.42463C17.4268 8.82745 17.5251 8.23131 17.7419 7.67423C17.9586 7.11715 18.2891 6.61134 18.7122 6.18904C19.1352 5.76674 19.6417 5.43721 20.1991 5.22146C20.7566 5.00571 21.3529 4.90847 21.9501 4.93593H21.9418ZM8.764 18.2661C7.93348 18.2269 7.13225 17.9472 6.45771 17.4611C5.78317 16.975 5.26438 16.3034 4.96441 15.528C4.66444 14.7525 4.59622 13.9066 4.76804 13.0931C4.93986 12.2796 5.34431 11.5336 5.93223 10.9457C6.52015 10.3577 7.26621 9.95329 8.07971 9.78147C8.89321 9.60965 9.73911 9.67788 10.5146 9.97784C11.29 10.2778 11.9616 10.7966 12.4477 11.4711C12.9338 12.1457 13.2135 12.9469 13.2527 13.7774C13.2784 14.3737 13.1798 14.9689 12.9633 15.5251C12.7468 16.0813 12.4171 16.5864 11.995 17.0085C11.573 17.4305 11.0679 17.7602 10.5116 17.9767C9.95544 18.1932 9.36031 18.2918 8.764 18.2661ZM13.4339 48.4722V35.0843H16.926L13.4339 48.4722ZM27.6454 48.4722L24.1491 35.0843H27.6454V48.4722ZM44.0394 27.2518C44.0192 27.2766 43.9933 27.2963 43.9639 27.3092C43.9346 27.3221 43.9026 27.3278 43.8706 27.3259L43.4876 27.2765L42.0462 18.0932L42.6846 17.7843C42.7047 17.7731 42.7274 17.7673 42.7504 17.7673C42.7735 17.7673 42.7962 17.7731 42.8163 17.7843C42.8481 17.8049 42.8745 17.8329 42.8931 17.8659C42.9118 17.8989 42.9222 17.9359 42.9234 17.9737L44.1588 26.9305C44.1631 26.9895 44.1547 27.0487 44.1341 27.1042C44.1135 27.1596 44.0812 27.2099 44.0394 27.2518Z" fill="white"/>
<path d="M66.0383 16.8369V19.6166H58.0451V22.8122H65.3753V25.3943H58.0451V29.0676H66.1866V31.8514H54.7754V16.8369H66.0383Z" fill="white"/>
<path d="M81.0862 16.8369L76.2557 23.9982L81.5228 31.8514H77.5776L75.3415 28.2934C74.9639 27.6834 74.6295 27.0476 74.3408 26.3908C74.0092 27.0432 73.6421 27.6769 73.2413 28.2893L70.9723 31.839H67.2207L72.5289 23.9859L67.616 16.8369H71.4582L73.2825 19.7896C73.7127 20.467 74.0939 21.1744 74.4232 21.9063C74.7602 21.2194 75.1342 20.5513 75.5433 19.9049L77.4582 16.8369H81.0862Z" fill="white"/>
<path d="M96.5781 26.0531C96.4942 27.5154 95.9444 28.9124 95.0091 30.0394C93.7929 31.489 92.0674 32.2138 89.8327 32.2138C87.4634 32.2138 85.6158 31.3751 84.2897 29.6976C83.1194 28.1588 82.5145 26.2641 82.5766 24.3318C82.512 22.2719 83.2317 20.2643 84.5903 18.7147C85.9246 17.224 87.7091 16.4786 89.9438 16.4786C90.8793 16.442 91.8116 16.6069 92.6777 16.9622C93.5438 17.3175 94.3235 17.8547 94.9638 18.5377C95.8307 19.4442 96.3573 20.6227 96.4545 21.8733H93.2136C93.1051 21.2608 92.8285 20.6905 92.4147 20.2261C92.0901 19.8841 91.6952 19.6165 91.2573 19.4416C90.8194 19.2667 90.3489 19.1887 89.878 19.213C89.23 19.1823 88.5865 19.3349 88.0213 19.6532C87.4561 19.9715 86.992 20.4426 86.6823 21.0126C86.1199 22.0365 85.844 23.1931 85.8834 24.3606C85.8377 25.541 86.123 26.7107 86.707 27.7374C87.0199 28.2856 87.4771 28.7375 88.0289 29.0439C88.5808 29.3503 89.2061 29.4995 89.8368 29.4753C90.3646 29.5088 90.8921 29.4054 91.3682 29.1753C91.8444 28.9452 92.2531 28.596 92.5547 28.1616C92.9657 27.5289 93.2146 26.8048 93.2795 26.0531H96.5781Z" fill="white"/>
<path d="M106.618 16.8037L112.318 31.8511H108.879L107.685 28.4826H102.101L100.865 31.8511H97.4844L103.208 16.8037H106.618ZM106.886 26.0858L105.914 23.3803C105.523 22.3116 105.189 21.2229 104.913 20.1188C104.666 21.0041 104.312 22.0913 103.859 23.3803L102.887 26.0858H106.886Z" fill="white"/>
<path d="M114.229 16.8364H120.278C121.191 16.8106 122.104 16.8991 122.996 17.1C123.959 17.3486 124.801 17.9327 125.372 18.7472C125.961 19.5907 126.265 20.6012 126.237 21.6299C126.269 22.3274 126.14 23.023 125.86 23.6623C125.579 24.3017 125.154 24.8675 124.618 25.3155C124.04 25.7979 123.346 26.1215 122.605 26.2544C122.031 26.3593 121.45 26.4089 120.867 26.4027H117.498V31.818H114.229V16.8364ZM117.498 19.6161V23.8577H120.43C121.087 23.9126 121.743 23.7474 122.296 23.3883C122.537 23.1845 122.727 22.9272 122.85 22.6368C122.974 22.3465 123.028 22.0313 123.008 21.7163C123.03 21.3864 122.965 21.0565 122.821 20.759C122.677 20.4616 122.457 20.2068 122.185 20.0197C121.59 19.7027 120.917 19.5599 120.245 19.6079L117.498 19.6161Z" fill="white"/>
<path d="M139.929 16.8369V19.6166H131.936V22.8122H139.27V25.3943H131.936V29.0676H140.081V31.8514H128.666V16.8369H139.929Z" fill="white"/>
<path d="M156.628 16.8369V18.5665H148.21V23.3393H156.076V24.9372H148.21V30.13H156.735V31.8555H146.229V16.8369H156.628Z" fill="white"/>
<path d="M172.445 23.9197V31.8387H171.185L170.876 30.698C170.798 30.3933 170.732 30.1462 170.675 29.9609C170.098 30.6802 169.361 31.2552 168.524 31.6405C167.686 32.0257 166.77 32.2106 165.848 32.1805C163.441 32.1805 161.579 31.313 160.264 29.5779C159.179 28.1056 158.619 26.3119 158.675 24.4838C158.675 22.1283 159.361 20.1887 160.734 18.665C162.035 17.2127 163.787 16.4852 165.988 16.4824C168.028 16.4824 169.633 17.0823 170.802 18.282C171.647 19.1301 172.171 20.245 172.285 21.4365H170.333C170.231 20.7562 169.935 20.1198 169.48 19.6039C168.657 18.643 167.489 18.164 165.976 18.1667C165.212 18.1325 164.45 18.2809 163.755 18.5996C163.06 18.9183 162.45 19.3981 161.977 19.9993C161.104 21.0974 160.668 22.5648 160.668 24.4015C160.607 25.8753 161.026 27.3291 161.862 28.5442C162.334 29.1847 162.957 29.6983 163.675 30.0389C164.394 30.3796 165.186 30.5367 165.98 30.4962C166.599 30.5187 167.217 30.4161 167.796 30.1947C168.374 29.9732 168.903 29.6374 169.349 29.2073C170.213 28.3589 170.661 27.1235 170.691 25.501H165.869V23.9197H172.445Z" fill="white"/>
<path d="M187.279 16.8369L181.493 25.7031V31.8514H179.508V25.7031L173.66 16.8369H176.057L179.594 22.4416C180.014 23.1005 180.341 23.6496 180.574 24.0888C180.827 23.6194 181.137 23.0936 181.505 22.5116L185.022 16.8534L187.279 16.8369Z" fill="white"/>
<path d="M188.823 16.8372H194.79C195.583 16.8128 196.375 16.8945 197.146 17.0802C198.026 17.3331 198.789 17.8888 199.3 18.6492C199.792 19.3894 200.041 20.2646 200.012 21.153C200.012 22.8661 199.43 24.1166 198.266 24.9045C197.67 25.304 196.986 25.5528 196.273 25.6293C195.809 25.671 195.343 25.6889 194.877 25.6828H190.804V31.8599H188.823V16.8372ZM190.804 18.5627V24.0809H194.63C195.717 24.0809 196.512 23.8997 197.006 23.5373C197.349 23.2709 197.62 22.9241 197.797 22.5276C197.974 22.1311 198.05 21.6971 198.019 21.2641C198.051 20.813 197.958 20.3617 197.749 19.9604C197.541 19.5592 197.225 19.2236 196.837 18.991C196.442 18.7675 196.001 18.6352 195.548 18.6039C195.247 18.575 194.848 18.5627 194.341 18.5627H190.804Z" fill="white"/>
<path d="M213.12 16.8369V18.5665H208.067V31.8555H206.086V18.5665H201.046V16.8369H213.12Z" fill="white"/>
<path d="M66.7833 46.6813C66.6762 44.7129 66.5486 42.3491 66.5692 40.5907H66.5156C66.0338 42.2379 65.4491 44.0046 64.7325 45.9442L62.237 52.7843H60.8492L58.5636 46.0719C57.8924 44.0828 57.3282 42.2626 56.9164 40.5866H56.8752C56.834 42.345 56.7311 44.7046 56.6034 46.8213L56.2205 52.8749H54.4785L55.4627 38.7705H57.7936L60.2067 45.5942C60.7915 47.332 61.2774 48.8886 61.6316 50.3423H61.6975C62.0516 48.9174 62.5541 47.3732 63.1841 45.5942L65.7044 38.7705H68.0311L68.9124 52.8749H67.1292L66.7833 46.6813Z" fill="white"/>
<path d="M77.3918 52.8749L77.2476 51.5983H77.1858C76.8242 52.077 76.3542 52.4631 75.8145 52.7251C75.2748 52.9871 74.6806 53.1174 74.0808 53.1055C72.0218 53.1055 70.9717 51.6642 70.9717 50.1981C70.9717 47.752 73.1584 46.4136 77.0788 46.4301V46.2201C77.0788 45.3965 76.8482 43.881 74.7727 43.881C73.8387 43.8835 72.9237 44.1443 72.1289 44.6346L71.717 43.3992C72.7247 42.7977 73.8792 42.4869 75.0527 42.5015C78.1577 42.5015 78.9113 44.6182 78.9113 46.6442V50.4329C78.8973 51.2447 78.9538 52.0563 79.0802 52.8584L77.3918 52.8749ZM77.12 47.7067C75.1062 47.6655 72.8207 48.0197 72.8207 49.9881C72.8051 50.2215 72.8393 50.4555 72.9212 50.6746C73.003 50.8937 73.1306 51.0928 73.2954 51.2588C73.4602 51.4247 73.6584 51.5537 73.8769 51.6371C74.0954 51.7205 74.3292 51.7564 74.5626 51.7424C75.1016 51.7629 75.6329 51.6095 76.0779 51.3046C76.5229 50.9998 76.8579 50.5599 77.0335 50.0499C77.1008 49.8621 77.137 49.6646 77.1405 49.4651L77.12 47.7067Z" fill="white"/>
<path d="M81.8675 45.9068C81.8675 44.7125 81.8469 43.6871 81.7852 42.7482H83.3994L83.4612 44.7331H83.5436C83.7181 44.1139 84.0843 43.566 84.5896 43.1679C85.0949 42.7699 85.7134 42.5422 86.3562 42.5176C86.5324 42.5176 86.7079 42.5383 86.8792 42.5793V44.3172C86.6721 44.2731 86.4608 44.2524 86.2491 44.2554C84.9478 44.2554 84.0254 45.2396 83.7783 46.6192C83.7275 46.902 83.6999 47.1884 83.6959 47.4757V52.8745H81.8675V45.9068Z" fill="white"/>
<path d="M90.6313 47.3932H90.6725C90.9237 47.0391 91.2819 46.5985 91.5743 46.2402L94.5517 42.7481H96.7755L92.8715 46.9114L97.3396 52.8744H95.0912L91.5908 48.0192L90.6478 49.0652V52.8744H88.8193V38.0205H90.6478L90.6313 47.3932Z" fill="white"/>
<path d="M99.658 48.147C99.6992 50.6178 101.305 51.6638 103.142 51.6638C104.105 51.6929 105.063 51.5131 105.95 51.1367L106.268 52.4545C105.199 52.8995 104.048 53.1142 102.891 53.0845C99.7651 53.0845 97.8955 51.0255 97.8955 47.9781C97.8955 44.9308 99.6992 42.5176 102.656 42.5176C105.971 42.5176 106.856 45.4249 106.856 47.2863C106.852 47.5743 106.83 47.8617 106.791 48.147H99.658ZM105.069 46.8251C105.094 45.6555 104.587 43.8354 102.512 43.8354C100.642 43.8354 99.8269 45.5526 99.6786 46.8251H105.069Z" fill="white"/>
<path d="M111.353 39.8369V42.7484H113.997V44.1485H111.353V49.6091C111.353 50.8651 111.711 51.5775 112.737 51.5775C113.098 51.5838 113.458 51.5408 113.807 51.4499L113.89 52.8335C113.361 53.0193 112.802 53.1045 112.243 53.0848C111.874 53.1069 111.505 53.0492 111.161 52.9156C110.817 52.7819 110.506 52.5756 110.249 52.3106C109.726 51.767 109.537 50.8651 109.537 49.6709V44.1485H107.964V42.7484H109.537V40.3228L111.353 39.8369Z" fill="white"/>
<path d="M118.119 39.9028C118.101 40.194 117.973 40.4675 117.761 40.6676C117.549 40.8676 117.268 40.979 116.976 40.979C116.684 40.979 116.404 40.8676 116.191 40.6676C115.979 40.4675 115.851 40.194 115.833 39.9028C115.829 39.7503 115.857 39.5986 115.913 39.4569C115.97 39.3152 116.054 39.1865 116.162 39.0786C116.27 38.9707 116.399 38.8859 116.541 38.8294C116.682 38.7729 116.834 38.7457 116.986 38.7497C117.138 38.7443 117.29 38.7707 117.431 38.827C117.572 38.8833 117.7 38.9684 117.807 39.0769C117.913 39.1853 117.996 39.3148 118.05 39.457C118.103 39.5991 118.127 39.751 118.119 39.9028ZM116.06 52.8747V42.7484H117.909V52.8747H116.06Z" fill="white"/>
<path d="M120.964 45.487C120.964 44.441 120.944 43.5886 120.882 42.7485H122.529L122.636 44.4204H122.677C123.011 43.8282 123.5 43.3381 124.091 43.0029C124.682 42.6677 125.354 42.5 126.034 42.5179C127.442 42.5179 129.62 43.3415 129.62 46.8254V52.8748H127.775V47.0395C127.775 45.3923 127.166 44.0457 125.428 44.0457C124.869 44.0548 124.328 44.2423 123.884 44.5809C123.439 44.9195 123.115 45.3914 122.957 45.9277C122.866 46.2052 122.823 46.4963 122.83 46.7883V52.8748H120.985L120.964 45.487Z" fill="white"/>
<path d="M141.341 42.7484C141.295 43.4814 141.254 44.2968 141.254 45.5322V51.4087C141.254 53.7354 140.793 55.1561 139.809 56.0333C138.824 56.9104 137.395 57.2481 136.102 57.2481C134.924 57.2793 133.758 56.995 132.726 56.4245L133.187 55.0202C134.087 55.554 135.117 55.8303 136.164 55.8191C138.054 55.8191 139.438 54.8349 139.438 52.2817V51.1492H139.405C139.064 51.6925 138.586 52.1358 138.018 52.4338C137.45 52.7318 136.813 52.874 136.172 52.8459C133.656 52.8459 131.853 50.7086 131.853 47.9042C131.853 44.4697 134.097 42.526 136.428 42.526C137.068 42.4895 137.705 42.6354 138.266 42.9466C138.826 43.2579 139.287 43.7218 139.595 44.2844H139.636L139.722 42.7566L141.341 42.7484ZM139.43 46.747C139.443 46.3862 139.383 46.0264 139.254 45.6891C139.126 45.3519 138.93 45.0441 138.679 44.7842C138.429 44.5243 138.128 44.3177 137.796 44.1766C137.463 44.0355 137.106 43.963 136.745 43.9632C134.982 43.9632 133.726 45.4457 133.726 47.793C133.726 49.7779 134.731 51.4293 136.724 51.4293C137.294 51.4272 137.849 51.2443 138.309 50.9069C138.768 50.5694 139.109 50.0948 139.282 49.5514C139.383 49.2319 139.433 48.8983 139.43 48.5631V46.747Z" fill="white"/>
<path d="M151.096 48.4397L149.626 52.8749H147.74L152.542 38.7705H154.745L159.584 52.8749H157.636L156.125 48.4397H151.096ZM155.729 47.019L154.346 42.9586C154.033 42.0403 153.819 41.2166 153.613 40.393H153.567C153.361 41.2166 153.131 42.0856 152.855 42.9462L151.475 47.0272L155.729 47.019Z" fill="white"/>
<path d="M170.065 42.7475C170.019 43.4806 169.978 44.2959 169.978 45.5314V51.4078C169.978 53.7346 169.521 55.1553 168.533 56.0324C167.545 56.9096 166.12 57.2473 164.827 57.2473C163.649 57.2792 162.484 56.9948 161.454 56.4236L161.911 55.0194C162.812 55.5531 163.841 55.8295 164.888 55.8183C166.779 55.8183 168.183 54.8341 168.183 52.2809V51.1484H168.138C167.797 51.6917 167.318 52.1349 166.75 52.433C166.182 52.731 165.546 52.8732 164.905 52.845C162.389 52.845 160.585 50.7078 160.585 47.9034C160.585 44.4689 162.829 42.5252 165.16 42.5252C165.8 42.4882 166.438 42.6338 166.999 42.9452C167.559 43.2565 168.02 43.7206 168.327 44.2836H168.368L168.455 42.7558L170.065 42.7475ZM168.154 46.7462C168.167 46.3854 168.108 46.0256 167.979 45.6883C167.85 45.3511 167.654 45.0433 167.403 44.7834C167.153 44.5235 166.852 44.3169 166.52 44.1758C166.187 44.0347 165.83 43.9621 165.469 43.9624C163.706 43.9624 162.45 45.4449 162.45 47.7922C162.45 49.7771 163.455 51.4284 165.448 51.4284C166.019 51.4264 166.573 51.2435 167.033 50.9061C167.492 50.5686 167.833 50.094 168.006 49.5506C168.107 49.2311 168.157 48.8975 168.154 48.5623V46.7462Z" fill="white"/>
<path d="M174.059 48.147C174.101 50.6178 175.707 51.6638 177.539 51.6638C178.504 51.6928 179.463 51.513 180.352 51.1367L180.665 52.4545C179.596 52.8995 178.445 53.1142 177.288 53.0845C174.162 53.0845 172.297 51.0255 172.297 47.9781C172.297 44.9308 174.101 42.5176 177.057 42.5176C180.372 42.5176 181.254 45.4249 181.254 47.2863C181.25 47.5743 181.228 47.8617 181.188 48.147H174.059ZM179.471 46.8251C179.471 45.6555 178.989 43.8354 176.909 43.8354C175.044 43.8354 174.224 45.5526 174.08 46.8251H179.471Z" fill="white"/>
<path d="M183.523 45.487C183.523 44.441 183.502 43.5886 183.44 42.7485H185.088L185.195 44.4204H185.236C185.57 43.8282 186.058 43.3381 186.65 43.0029C187.241 42.6677 187.913 42.5 188.592 42.5179C190.001 42.5179 192.179 43.3415 192.179 46.8254V52.8748H190.334V47.0395C190.334 45.3923 189.725 44.0457 187.987 44.0457C187.428 44.0554 186.887 44.2432 186.443 44.5817C185.998 44.9202 185.674 45.3917 185.516 45.9277C185.428 46.206 185.387 46.4966 185.392 46.7883V52.8748H183.543L183.523 45.487Z" fill="white"/>
<path d="M202.387 52.4958C201.473 52.9055 200.478 53.1066 199.476 53.0847C196.412 53.0847 194.419 51.0256 194.419 47.9165C194.419 44.8073 196.56 42.563 199.875 42.563C200.755 42.5519 201.627 42.7288 202.433 43.0819L202.021 44.5067C201.362 44.1635 200.626 43.9975 199.884 44.0249C197.553 44.0249 196.297 45.7421 196.297 47.8547C196.297 50.1979 197.804 51.6433 199.818 51.6433C200.601 51.6464 201.375 51.4733 202.083 51.1368L202.387 52.4958Z" fill="white"/>
<path d="M205.587 42.7481L207.811 48.7317C208.041 49.4029 208.293 50.1977 208.461 50.7907H208.503C208.692 50.1854 208.914 49.4112 209.153 48.6781L211.167 42.7358H213.119L210.347 49.9506C209.026 53.4263 208.124 55.2053 206.868 56.2925C206.228 56.8806 205.446 57.2921 204.599 57.4867L204.142 55.9383C204.732 55.7455 205.28 55.4407 205.756 55.0406C206.425 54.4841 206.955 53.779 207.304 52.9815C207.38 52.845 207.431 52.6957 207.452 52.5409C207.436 52.3744 207.393 52.2116 207.325 52.0591L203.573 42.7275L205.587 42.7481Z" fill="white"/>
</svg>
